<svg xmlns="http://www.w3.org/2000/svg" width="800" height="500" viewBox="0 0 800 500"><rect width="800" height="500" fill="#edf3fc"/><polyline points="100,390 240,250 410,250 550,110 730,110" stroke="#235df5" stroke-width="9" fill="none" stroke-linejoin="round"/><circle cx="100" cy="390" r="9" fill="white" stroke="#235df5" stroke-width="4"/><circle cx="240" cy="250" r="9" fill="white" stroke="#235df5" stroke-width="4"/><circle cx="410" cy="250" r="9" fill="white" stroke="#235df5" stroke-width="4"/><circle cx="550" cy="110" r="9" fill="white" stroke="#235df5" stroke-width="4"/><circle cx="730" cy="110" r="9" fill="white" stroke="#235df5" stroke-width="4"/><polyline points="140,110 270,240 480,240 650,410" stroke="#db6572" stroke-width="9" fill="none" stroke-linejoin="round"/><circle cx="140" cy="110" r="9" fill="white" stroke="#db6572" stroke-width="4"/><circle cx="270" cy="240" r="9" fill="white" stroke="#db6572" stroke-width="4"/><circle cx="480" cy="240" r="9" fill="white" stroke="#db6572" stroke-width="4"/><circle cx="650" cy="410" r="9" fill="white" stroke="#db6572" stroke-width="4"/><polyline points="90,310 300,310 410,200 700,200" stroke="#46a995" stroke-width="9" fill="none" stroke-linejoin="round"/><circle cx="90" cy="310" r="9" fill="white" stroke="#46a995" stroke-width="4"/><circle cx="300" cy="310" r="9" fill="white" stroke="#46a995" stroke-width="4"/><circle cx="410" cy="200" r="9" fill="white" stroke="#46a995" stroke-width="4"/><circle cx="700" cy="200" r="9" fill="white" stroke="#46a995" stroke-width="4"/><text x="46" y="455" font-family="monospace" font-size="15" fill="#60738f">CAIRO / THREE LINES. ONE CONNECTED CITY.</text></svg>